HIERARCHY
ROOT Hips
{
	OFFSET -1.602300 6.242603 43.997101
	CHANNELS 6 Xposition Yposition Zposition Zrotation Xrotation Yrotation
	JOINT Chest
	{
		OFFSET -0.204900 1.598101 7.917301
		CHANNELS 6 Xposition Yposition Zposition Zrotation Xrotation Yrotation
		JOINT Chest2
		{
			OFFSET 0.000000 0.000000 3.404099
			CHANNELS 6 Xposition Yposition Zposition Zrotation Xrotation Yrotation
			JOINT Neck
			{
				OFFSET 0.000000 0.000000 7.928600
				CHANNELS 6 Xposition Yposition Zposition Zrotation Xrotation Yrotation
				JOINT Head
				{
					OFFSET 0.000000 0.000000 2.173897
					CHANNELS 6 Xposition Yposition Zposition Zrotation Xrotation Yrotation
					End Site
					{
						OFFSET 0.000000 0.000001 10.404503
					}
				}
			}
			JOINT LeftCollar
			{
				OFFSET 2.833800 -1.396299 4.843300
				CHANNELS 6 Xposition Yposition Zposition Zrotation Xrotation Yrotation
				JOINT LeftShoulder
				{
					OFFSET 4.363600 0.000000 0.000000
					CHANNELS 6 Xposition Yposition Zposition Zrotation Xrotation Yrotation
					JOINT LeftElbow
					{
						OFFSET 0.000000 -0.000001 -10.306900
						CHANNELS 6 Xposition Yposition Zposition Zrotation Xrotation Yrotation
						JOINT LeftWrist
						{
							OFFSET 0.000000 -0.000001 -12.404900
							CHANNELS 6 Xposition Yposition Zposition Zrotation Xrotation Yrotation
							End Site
							{
								OFFSET 0.000000 0.000000 -2.173901
							}
						}
					}
				}
			}
			JOINT RightCollar
			{
				OFFSET -2.354800 -1.897200 5.063099
				CHANNELS 6 Xposition Yposition Zposition Zrotation Xrotation Yrotation
				JOINT RightShoulder
				{
					OFFSET -4.375800 0.000000 0.000000
					CHANNELS 6 Xposition Yposition Zposition Zrotation Xrotation Yrotation
					JOINT RightElbow
					{
						OFFSET 0.000000 -0.000001 -10.005001
						CHANNELS 6 Xposition Yposition Zposition Zrotation Xrotation Yrotation
						JOINT RightWrist
						{
							OFFSET 0.000000 -0.000001 -13.174900
							CHANNELS 6 Xposition Yposition Zposition Zrotation Xrotation Yrotation
							End Site
							{
								OFFSET 0.000000 0.000000 -2.173901
							}
						}
					}
				}
			}
		}
	}
	JOINT LeftHip
	{
		OFFSET 2.240600 0.386800 -2.614101
		CHANNELS 6 Xposition Yposition Zposition Zrotation Xrotation Yrotation
		JOINT LeftKnee
		{
			OFFSET 0.000000 -0.000001 -18.592899
			CHANNELS 6 Xposition Yposition Zposition Zrotation Xrotation Yrotation
			JOINT LeftAnkle
			{
				OFFSET 0.000000 -0.000001 -18.765800
				CHANNELS 6 Xposition Yposition Zposition Zrotation Xrotation Yrotation
				End Site
				{
					OFFSET 0.000000 -8.655000 0.000000
				}
			}
		}
	}
	JOINT RightHip
	{
		OFFSET -2.014900 -0.220900 -2.615898
		CHANNELS 6 Xposition Yposition Zposition Zrotation Xrotation Yrotation
		JOINT RightKnee
		{
			OFFSET 0.000000 -0.000001 -18.633900
			CHANNELS 6 Xposition Yposition Zposition Zrotation Xrotation Yrotation
			JOINT RightAnkle
			{
				OFFSET 0.000000 -0.000001 -18.285101
				CHANNELS 6 Xposition Yposition Zposition Zrotation Xrotation Yrotation
				End Site
				{
					OFFSET 0.000000 -7.524500 0.000000
				}
			}
		}
	}
}
MOTION
Frames: 4
Frame Time: 0.041667
-6.426401 25.978100 7.678204 6.976912 0.897065 -7.471491 -0.204902 1.598102 7.917307 -6.942126 9.513076 -5.911704 -0.000001 0.000003 3.404103 16.129410 -13.104218 0.771913 0.000000 -0.000003 7.928595 -24.375765 11.127116 24.182780 -0.000002 -0.000001 2.173904 -2.614975 2.011260 -2.973017 2.833802 -1.396303 4.843304 5.735621 10.447359 12.520070 4.363595 0.000006 -0.000006 -20.923391 -9.228719 -72.031236 -0.000008 0.000009 -10.306900 646.862300 -127.324985 598.817438 0.000005 0.000000 -12.404896 -8.008406 341.670132 -342.196548 -2.354800 -1.897202 5.063099 14.272860 13.330788 -7.568925 -4.375793 0.000006 -0.000005 45.384056 -34.470496 86.184509 0.000001 0.000014 -10.005003 -622.707308 -147.826590 -606.883072 -0.000005 -0.000000 -13.174892 -129.291123 -148.201267 179.003863 2.240597 0.386803 -2.614103 131.966454 -33.566439 95.252869 -0.000003 -0.000000 -18.592892 -184.943928 58.917430 203.613239 -0.000003 0.000003 -18.765797 -35.041080 10.979938 79.533626 -2.014899 -0.220896 -2.615901 -121.512808 -18.414388 -101.075557 -0.000000 0.000004 -18.633883 175.865951 26.275659 -176.540651 -0.000005 -0.000005 -18.285084 -19.637446 32.336793 -203.229451
-6.435701 25.970100 7.679104 7.071653 0.987660 -7.613868 -0.204901 1.598103 7.917309 -7.025190 9.688530 -6.024150 -0.000001 -0.000002 3.404102 16.399834 -13.111825 0.805551 -0.000002 -0.000003 7.928606 -24.606781 10.709820 24.423571 -0.000001 0.000001 2.173905 -2.569456 1.932335 -2.934354 2.833800 -1.396303 4.843306 5.652211 10.535295 12.853529 4.363589 0.000005 -0.000001 -20.716775 -8.381524 -71.336955 -0.000008 0.000007 -10.306898 647.726892 -127.261505 598.805034 0.000003 -0.000001 -12.404896 -7.493819 341.256222 -343.536440 -2.354801 -1.897204 5.063105 14.161318 13.282684 -7.782065 -4.375797 0.000002 -0.000001 45.376153 -33.488691 85.598635 0.000002 0.000010 -10.005005 -621.863480 -146.394136 -606.584729 -0.000006 0.000003 -13.174894 -130.224646 -148.442004 180.403778 2.240596 0.386802 -2.614098 131.873946 -33.491525 95.192688 -0.000002 0.000000 -18.592897 -184.783883 58.907342 203.561794 -0.000002 0.000001 -18.765795 -35.049911 10.967254 79.510649 -2.014896 -0.220895 -2.615896 -121.626804 -18.357421 -101.253757 -0.000000 0.000003 -18.633883 175.939266 26.258160 -176.522510 -0.000005 -0.000006 -18.285084 -19.662759 32.311337 -203.197814
-6.444001 25.961002 7.680511 7.165295 1.082883 -7.753269 -0.204901 1.598096 7.917307 -7.107692 9.865157 -6.119044 0.000000 0.000002 3.404102 16.634074 -13.139290 0.832657 -0.000001 0.000001 7.928602 -24.784076 10.337099 24.614929 -0.000001 -0.000003 2.173906 -2.612418 1.929892 -2.908908 2.833803 -1.396297 4.843307 5.606931 10.607261 13.167311 4.363592 0.000005 -0.000002 -20.551985 -7.334362 -70.650200 -0.000007 0.000004 -10.306904 648.626237 -126.983421 598.737606 0.000005 -0.000001 -12.404891 -6.841399 341.002904 -344.441440 -2.354801 -1.897200 5.063106 14.099262 13.270132 -8.004206 -4.375796 0.000007 -0.000004 45.347019 -32.589141 85.041804 0.000001 0.000008 -10.005003 -621.001728 -145.023002 -606.307369 -0.000004 0.000000 -13.174895 -131.226375 -148.522423 181.675724 2.240596 0.386798 -2.614105 131.791942 -33.413729 95.145689 -0.000002 -0.000002 -18.592894 -184.631351 58.901065 203.511046 -0.000002 0.000002 -18.765797 -35.056154 10.960099 79.493799 -2.014898 -0.220897 -2.615903 -121.737194 -18.303020 -101.439558 -0.000000 0.000003 -18.633883 176.009781 26.234743 -176.506404 -0.000005 -0.000007 -18.285084 -19.681294 32.277504 -203.173730
-6.451499 25.950502 7.682007 7.248979 1.177684 -7.894390 -0.204900 1.598101 7.917310 -7.181551 10.038413 -6.199738 -0.000000 -0.000000 3.404100 16.843398 -13.152296 0.858647 -0.000001 -0.000004 7.928599 -24.946817 9.987398 24.796198 -0.000000 -0.000002 2.173904 -2.608353 1.942606 -2.896127 2.833802 -1.396304 4.843304 5.555814 10.680912 13.454616 4.363597 0.000006 0.000005 -20.336168 -6.377287 -69.990246 -0.000007 0.000004 -10.306904 649.453728 -126.816150 598.692855 0.000004 -0.000001 -12.404895 -6.266463 340.728358 -345.194755 -2.354800 -1.897203 5.063105 14.087692 13.289886 -8.188099 -4.375794 0.000003 -0.000005 45.275169 -31.987268 84.498053 0.000003 0.000007 -10.004998 -619.912231 -143.605888 -606.020719 -0.000005 0.000003 -13.174892 -132.402234 -148.465431 182.779496 2.240598 0.386806 -2.614101 131.722671 -33.340158 95.102516 -0.000001 -0.000002 -18.592894 -184.480445 58.895908 203.463317 -0.000002 0.000001 -18.765797 -35.060348 10.960100 79.471860 -2.014897 -0.220895 -2.615897 -121.836887 -18.261675 -101.626494 -0.000000 0.000004 -18.633879 176.073848 26.207788 -176.492375 -0.000004 -0.000005 -18.285084 -19.696020 32.239026 -203.155139
